<?xml version="1.0" encoding="UTF-8" standalone="no"?>
<!DOCTYPE svg PUBLIC "-//W3C//DTD SVG 1.1//EN"
 "http://www.w3.org/Graphics/SVG/1.1/DTD/svg11.dtd">
<!-- Generated by graphviz version 2.38.0 (20140413.2041)
 -->
<!-- Title: controllers_diagram Pages: 1 -->
<svg width="528pt" height="596pt"
 viewBox="0.00 0.00 528.00 596.00" xmlns="http://www.w3.org/2000/svg" xmlns:xlink="http://www.w3.org/1999/xlink">
<g id="graph0" class="graph" transform="scale(1 1) rotate(0) translate(208 371)">
<title>controllers_diagram</title>
<polygon fill="none" stroke="none" points="-208,225 -208,-371 320,-371 320,225 -208,225"/>
<!-- _diagram_info -->
<g id="node1" class="node"><title>_diagram_info</title>
<text text-anchor="start" x="110" y="157.4" font-family="Times,serif" font-size="13.00">Controllers diagram</text>
<text text-anchor="start" x="110" y="171.4" font-family="Times,serif" font-size="13.00">Date: Mar 02 2017 &#45; 12:27</text>
<text text-anchor="start" x="110" y="185.4" font-family="Times,serif" font-size="13.00">Migration version: 20170302151839</text>
<text text-anchor="start" x="110" y="199.4" font-family="Times,serif" font-size="13.00">Generated by RailRoady 1.5.2</text>
<text text-anchor="start" x="110" y="213.4" font-family="Times,serif" font-size="13.00">http://railroady.prestonlee.com</text>
</g>
<!-- SongsController -->
<g id="node2" class="node"><title>SongsController</title>
<path fill="none" stroke="black" d="M114.5,101.5C114.5,101.5 195.5,101.5 195.5,101.5 201.5,101.5 207.5,95.5 207.5,89.5 207.5,89.5 207.5,-99.5 207.5,-99.5 207.5,-105.5 201.5,-111.5 195.5,-111.5 195.5,-111.5 114.5,-111.5 114.5,-111.5 108.5,-111.5 102.5,-105.5 102.5,-99.5 102.5,-99.5 102.5,89.5 102.5,89.5 102.5,95.5 108.5,101.5 114.5,101.5"/>
<text text-anchor="middle" x="155" y="-96.3" font-family="Times,serif" font-size="14.00">SongsController</text>
<polyline fill="none" stroke="black" points="102.5,-88.5 207.5,-88.5 "/>
<text text-anchor="start" x="110.5" y="-73.3" font-family="Times,serif" font-size="14.00">create</text>
<text text-anchor="start" x="110.5" y="-58.3" font-family="Times,serif" font-size="14.00">destroy</text>
<text text-anchor="start" x="110.5" y="-43.3" font-family="Times,serif" font-size="14.00">edit</text>
<text text-anchor="start" x="110.5" y="-28.3" font-family="Times,serif" font-size="14.00">index</text>
<text text-anchor="start" x="110.5" y="-13.3" font-family="Times,serif" font-size="14.00">new</text>
<text text-anchor="start" x="110.5" y="1.7" font-family="Times,serif" font-size="14.00">show</text>
<text text-anchor="start" x="110.5" y="16.7" font-family="Times,serif" font-size="14.00">update</text>
<polyline fill="none" stroke="black" points="102.5,24.5 207.5,24.5 "/>
<polyline fill="none" stroke="black" points="102.5,48.5 207.5,48.5 "/>
<text text-anchor="start" x="110.5" y="63.7" font-family="Times,serif" font-size="14.00">_layout</text>
<text text-anchor="start" x="110.5" y="78.7" font-family="Times,serif" font-size="14.00">set_song</text>
<text text-anchor="start" x="110.5" y="93.7" font-family="Times,serif" font-size="14.00">song_params</text>
</g>
<!-- ApplicationController -->
<g id="node3" class="node"><title>ApplicationController</title>
<path fill="none" stroke="black" d="M-192,-205C-192,-205 -80,-205 -80,-205 -74,-205 -68,-211 -68,-217 -68,-217 -68,-287 -68,-287 -68,-293 -74,-299 -80,-299 -80,-299 -192,-299 -192,-299 -198,-299 -204,-293 -204,-287 -204,-287 -204,-217 -204,-217 -204,-211 -198,-205 -192,-205"/>
<text text-anchor="middle" x="-136" y="-283.8" font-family="Times,serif" font-size="14.00">ApplicationController</text>
<polyline fill="none" stroke="black" points="-204,-276 -68,-276 "/>
<polyline fill="none" stroke="black" points="-204,-252 -68,-252 "/>
<polyline fill="none" stroke="black" points="-204,-228 -68,-228 "/>
<text text-anchor="start" x="-196" y="-212.8" font-family="Times,serif" font-size="14.00">_layout</text>
</g>
<!-- UsersController -->
<g id="node4" class="node"><title>UsersController</title>
<path fill="none" stroke="black" d="M165.5,-153.5C165.5,-153.5 244.5,-153.5 244.5,-153.5 250.5,-153.5 256.5,-159.5 256.5,-165.5 256.5,-165.5 256.5,-354.5 256.5,-354.5 256.5,-360.5 250.5,-366.5 244.5,-366.5 244.5,-366.5 165.5,-366.5 165.5,-366.5 159.5,-366.5 153.5,-360.5 153.5,-354.5 153.5,-354.5 153.5,-165.5 153.5,-165.5 153.5,-159.5 159.5,-153.5 165.5,-153.5"/>
<text text-anchor="middle" x="205" y="-351.3" font-family="Times,serif" font-size="14.00">UsersController</text>
<polyline fill="none" stroke="black" points="153.5,-343.5 256.5,-343.5 "/>
<text text-anchor="start" x="161.5" y="-328.3" font-family="Times,serif" font-size="14.00">create</text>
<text text-anchor="start" x="161.5" y="-313.3" font-family="Times,serif" font-size="14.00">destroy</text>
<text text-anchor="start" x="161.5" y="-298.3" font-family="Times,serif" font-size="14.00">edit</text>
<text text-anchor="start" x="161.5" y="-283.3" font-family="Times,serif" font-size="14.00">index</text>
<text text-anchor="start" x="161.5" y="-268.3" font-family="Times,serif" font-size="14.00">new</text>
<text text-anchor="start" x="161.5" y="-253.3" font-family="Times,serif" font-size="14.00">show</text>
<text text-anchor="start" x="161.5" y="-238.3" font-family="Times,serif" font-size="14.00">update</text>
<polyline fill="none" stroke="black" points="153.5,-230.5 256.5,-230.5 "/>
<polyline fill="none" stroke="black" points="153.5,-206.5 256.5,-206.5 "/>
<text text-anchor="start" x="161.5" y="-191.3" font-family="Times,serif" font-size="14.00">_layout</text>
<text text-anchor="start" x="161.5" y="-176.3" font-family="Times,serif" font-size="14.00">set_user</text>
<text text-anchor="start" x="161.5" y="-161.3" font-family="Times,serif" font-size="14.00">user_params</text>
</g>
<!-- UserSongsController -->
<g id="node5" class="node"><title>UserSongsController</title>
<path fill="none" stroke="black" d="M-55.5,118.5C-55.5,118.5 51.5,118.5 51.5,118.5 57.5,118.5 63.5,112.5 63.5,106.5 63.5,106.5 63.5,-82.5 63.5,-82.5 63.5,-88.5 57.5,-94.5 51.5,-94.5 51.5,-94.5 -55.5,-94.5 -55.5,-94.5 -61.5,-94.5 -67.5,-88.5 -67.5,-82.5 -67.5,-82.5 -67.5,106.5 -67.5,106.5 -67.5,112.5 -61.5,118.5 -55.5,118.5"/>
<text text-anchor="middle" x="-2" y="-79.3" font-family="Times,serif" font-size="14.00">UserSongsController</text>
<polyline fill="none" stroke="black" points="-67.5,-71.5 63.5,-71.5 "/>
<text text-anchor="start" x="-59.5" y="-56.3" font-family="Times,serif" font-size="14.00">create</text>
<text text-anchor="start" x="-59.5" y="-41.3" font-family="Times,serif" font-size="14.00">destroy</text>
<text text-anchor="start" x="-59.5" y="-26.3" font-family="Times,serif" font-size="14.00">edit</text>
<text text-anchor="start" x="-59.5" y="-11.3" font-family="Times,serif" font-size="14.00">index</text>
<text text-anchor="start" x="-59.5" y="3.7" font-family="Times,serif" font-size="14.00">new</text>
<text text-anchor="start" x="-59.5" y="18.7" font-family="Times,serif" font-size="14.00">show</text>
<text text-anchor="start" x="-59.5" y="33.7" font-family="Times,serif" font-size="14.00">update</text>
<polyline fill="none" stroke="black" points="-67.5,41.5 63.5,41.5 "/>
<polyline fill="none" stroke="black" points="-67.5,65.5 63.5,65.5 "/>
<text text-anchor="start" x="-59.5" y="80.7" font-family="Times,serif" font-size="14.00">_layout</text>
<text text-anchor="start" x="-59.5" y="95.7" font-family="Times,serif" font-size="14.00">set_user_song</text>
<text text-anchor="start" x="-59.5" y="110.7" font-family="Times,serif" font-size="14.00">user_song_params</text>
</g>
<!-- GenresController -->
<g id="node6" class="node"><title>GenresController</title>
<path fill="none" stroke="black" d="M-22,-136.5C-22,-136.5 64,-136.5 64,-136.5 70,-136.5 76,-142.5 76,-148.5 76,-148.5 76,-337.5 76,-337.5 76,-343.5 70,-349.5 64,-349.5 64,-349.5 -22,-349.5 -22,-349.5 -28,-349.5 -34,-343.5 -34,-337.5 -34,-337.5 -34,-148.5 -34,-148.5 -34,-142.5 -28,-136.5 -22,-136.5"/>
<text text-anchor="middle" x="21" y="-334.3" font-family="Times,serif" font-size="14.00">GenresController</text>
<polyline fill="none" stroke="black" points="-34,-326.5 76,-326.5 "/>
<text text-anchor="start" x="-26" y="-311.3" font-family="Times,serif" font-size="14.00">create</text>
<text text-anchor="start" x="-26" y="-296.3" font-family="Times,serif" font-size="14.00">destroy</text>
<text text-anchor="start" x="-26" y="-281.3" font-family="Times,serif" font-size="14.00">edit</text>
<text text-anchor="start" x="-26" y="-266.3" font-family="Times,serif" font-size="14.00">index</text>
<text text-anchor="start" x="-26" y="-251.3" font-family="Times,serif" font-size="14.00">new</text>
<text text-anchor="start" x="-26" y="-236.3" font-family="Times,serif" font-size="14.00">show</text>
<text text-anchor="start" x="-26" y="-221.3" font-family="Times,serif" font-size="14.00">update</text>
<polyline fill="none" stroke="black" points="-34,-213.5 76,-213.5 "/>
<polyline fill="none" stroke="black" points="-34,-189.5 76,-189.5 "/>
<text text-anchor="start" x="-26" y="-174.3" font-family="Times,serif" font-size="14.00">_layout</text>
<text text-anchor="start" x="-26" y="-159.3" font-family="Times,serif" font-size="14.00">genre_params</text>
<text text-anchor="start" x="-26" y="-144.3" font-family="Times,serif" font-size="14.00">set_genre</text>
</g>
</g>
</svg>
