<?xml version="1.0" encoding="UTF-8" standalone="no"?>
<!DOCTYPE svg PUBLIC "-//W3C//DTD SVG 1.1//EN"
 "http://www.w3.org/Graphics/SVG/1.1/DTD/svg11.dtd">
<!-- Generated by graphviz version 2.38.0 (20140413.2041)
 -->
<!-- Title: models_diagram Pages: 1 -->
<svg width="490pt" height="302pt"
 viewBox="0.00 0.00 490.50 302.00" xmlns="http://www.w3.org/2000/svg" xmlns:xlink="http://www.w3.org/1999/xlink">
<g id="graph0" class="graph" transform="scale(1 1) rotate(0) translate(4 298)">
<title>models_diagram</title>
<polygon fill="none" stroke="none" points="-4,4 -4,-298 486.496,-298 486.496,4 -4,4"/>
<!-- _diagram_info -->
<g id="node1" class="node"><title>_diagram_info</title>
<text text-anchor="start" x="8" y="-279.6" font-family="Times,serif" font-size="13.00">Models diagram</text>
<text text-anchor="start" x="8" y="-265.6" font-family="Times,serif" font-size="13.00">Date: Mar 02 2017 &#45; 12:27</text>
<text text-anchor="start" x="8" y="-251.6" font-family="Times,serif" font-size="13.00">Migration version: 20170302151839</text>
<text text-anchor="start" x="8" y="-237.6" font-family="Times,serif" font-size="13.00">Generated by RailRoady 1.5.2</text>
<text text-anchor="start" x="8" y="-223.6" font-family="Times,serif" font-size="13.00">http://railroady.prestonlee.com</text>
</g>
<!-- ApplicationRecord -->
<g id="node2" class="node"><title>ApplicationRecord</title>
<ellipse fill="none" stroke="black" cx="309" cy="-255" rx="77.1866" ry="18"/>
<text text-anchor="middle" x="309" y="-251.3" font-family="Times,serif" font-size="14.00">ApplicationRecord</text>
</g>
<!-- Song -->
<g id="node3" class="node"><title>Song</title>
<ellipse fill="none" stroke="black" cx="437" cy="-162" rx="28.6953" ry="18"/>
<text text-anchor="middle" x="437" y="-158.3" font-family="Times,serif" font-size="14.00">Song</text>
</g>
<!-- User -->
<g id="node5" class="node"><title>User</title>
<ellipse fill="none" stroke="black" cx="410" cy="-90" rx="27.0966" ry="18"/>
<text text-anchor="middle" x="410" y="-86.3" font-family="Times,serif" font-size="14.00">User</text>
</g>
<!-- Song&#45;&gt;User -->
<g id="edge2" class="edge"><title>Song&#45;&gt;User</title>
<path fill="none" stroke="#bf23d2" d="M426.993,-135.056C424.757,-129.258 422.383,-123.104 420.141,-117.291"/>
<polygon fill="#bf23d2" stroke="#bf23d2" points="427.003,-135.081 426.403,-146.03 428.802,-139.746 430.601,-144.411 430.601,-144.411 430.601,-144.411 428.802,-139.746 434.8,-142.792 427.003,-135.081 427.003,-135.081"/>
<polygon fill="#bf23d2" stroke="#bf23d2" points="420.139,-117.286 420.739,-106.337 418.34,-112.621 416.54,-107.956 416.54,-107.956 416.54,-107.956 418.34,-112.621 412.342,-109.576 420.139,-117.286 420.139,-117.286"/>
</g>
<!-- UserSong -->
<g id="node6" class="node"><title>UserSong</title>
<ellipse fill="none" stroke="black" cx="437" cy="-18" rx="45.4919" ry="18"/>
<text text-anchor="middle" x="437" y="-14.3" font-family="Times,serif" font-size="14.00">UserSong</text>
</g>
<!-- Song&#45;&gt;UserSong -->
<g id="edge1" class="edge"><title>Song&#45;&gt;UserSong</title>
<path fill="none" stroke="#f3362f" d="M442.15,-135.907C443.717,-127.121 445.228,-117.162 446,-108 447.344,-92.0566 447.344,-87.9434 446,-72 445.283,-63.4991 443.931,-54.3119 442.488,-46.0122"/>
<ellipse fill="none" stroke="#f3362f" cx="441.389" cy="-139.976" rx="4.00001" ry="4.00001"/>
<polygon fill="#f3362f" stroke="#f3362f" points="442.473,-45.9257 445.079,-35.2741 441.563,-41.0091 440.654,-36.0925 440.654,-36.0925 440.654,-36.0925 441.563,-41.0091 436.229,-36.9109 442.473,-45.9257 442.473,-45.9257"/>
</g>
<!-- Genre -->
<g id="node4" class="node"><title>Genre</title>
<ellipse fill="none" stroke="black" cx="437" cy="-255" rx="32.4942" ry="18"/>
<text text-anchor="middle" x="437" y="-251.3" font-family="Times,serif" font-size="14.00">Genre</text>
</g>
<!-- Genre&#45;&gt;Song -->
<g id="edge3" class="edge"><title>Genre&#45;&gt;Song</title>
<path fill="none" stroke="#6414b2" d="M437,-228.729C437,-216.725 437,-202.362 437,-190.129"/>
<ellipse fill="none" stroke="#6414b2" cx="437" cy="-232.884" rx="4" ry="4"/>
<polygon fill="#6414b2" stroke="#6414b2" points="437,-190.04 441.5,-180.04 437,-185.04 437,-180.04 437,-180.04 437,-180.04 437,-185.04 432.5,-180.04 437,-190.04 437,-190.04"/>
</g>
<!-- User&#45;&gt;UserSong -->
<g id="edge4" class="edge"><title>User&#45;&gt;UserSong</title>
<path fill="none" stroke="#a4c839" d="M419.343,-64.7779C421.747,-58.544 424.347,-51.8046 426.793,-45.4634"/>
<ellipse fill="none" stroke="#a4c839" cx="417.838" cy="-68.679" rx="4.00001" ry="4.00001"/>
<polygon fill="#a4c839" stroke="#a4c839" points="426.861,-45.2862 434.658,-37.5757 428.66,-40.6212 430.46,-35.9562 430.46,-35.9562 430.46,-35.9562 428.66,-40.6212 426.261,-34.3368 426.861,-45.2862 426.861,-45.2862"/>
</g>
</g>
</svg>
