<?xml version="1.0" encoding="UTF-8" standalone="no"?>
<!DOCTYPE svg PUBLIC "-//W3C//DTD SVG 1.1//EN"
 "http://www.w3.org/Graphics/SVG/1.1/DTD/svg11.dtd">
<!-- Generated by graphviz version 2.38.0 (20140413.2041)
 -->
<!-- Title: models_diagram Pages: 1 -->
<svg width="656pt" height="649pt"
 viewBox="0.00 0.00 656.00 649.00" xmlns="http://www.w3.org/2000/svg" xmlns:xlink="http://www.w3.org/1999/xlink">
<g id="graph0" class="graph" transform="scale(1 1) rotate(0) translate(4 645)">
<title>models_diagram</title>
<polygon fill="none" stroke="none" points="-4,4 -4,-645 652,-645 652,4 -4,4"/>
<!-- _diagram_info -->
<g id="node1" class="node"><title>_diagram_info</title>
<text text-anchor="start" x="8" y="-619.6" font-family="Times,serif" font-size="13.00">Models diagram</text>
<text text-anchor="start" x="8" y="-605.6" font-family="Times,serif" font-size="13.00">Date: Mar 02 2017 &#45; 12:27</text>
<text text-anchor="start" x="8" y="-591.6" font-family="Times,serif" font-size="13.00">Migration version: 20170302151839</text>
<text text-anchor="start" x="8" y="-577.6" font-family="Times,serif" font-size="13.00">Generated by RailRoady 1.5.2</text>
<text text-anchor="start" x="8" y="-563.6" font-family="Times,serif" font-size="13.00">http://railroady.prestonlee.com</text>
</g>
<!-- ApplicationRecord -->
<g id="node2" class="node"><title>ApplicationRecord</title>
<ellipse fill="none" stroke="black" cx="309" cy="-595" rx="77.1866" ry="18"/>
<text text-anchor="middle" x="309" y="-591.3" font-family="Times,serif" font-size="14.00">ApplicationRecord</text>
</g>
<!-- Song -->
<g id="node3" class="node"><title>Song</title>
<path fill="none" stroke="black" d="M416,-391.5C416,-391.5 636,-391.5 636,-391.5 642,-391.5 648,-397.5 648,-403.5 648,-403.5 648,-500.5 648,-500.5 648,-506.5 642,-512.5 636,-512.5 636,-512.5 416,-512.5 416,-512.5 410,-512.5 404,-506.5 404,-500.5 404,-500.5 404,-403.5 404,-403.5 404,-397.5 410,-391.5 416,-391.5"/>
<text text-anchor="middle" x="526" y="-497.3" font-family="Times,serif" font-size="14.00">Song</text>
<polyline fill="none" stroke="black" points="404,-489.5 648,-489.5 "/>
<text text-anchor="start" x="412" y="-474.3" font-family="Times,serif" font-size="14.00">id :integer</text>
<text text-anchor="start" x="412" y="-459.3" font-family="Times,serif" font-size="14.00">name :character varying</text>
<text text-anchor="start" x="412" y="-444.3" font-family="Times,serif" font-size="14.00">duration :integer</text>
<text text-anchor="start" x="412" y="-429.3" font-family="Times,serif" font-size="14.00">genre_id :integer</text>
<text text-anchor="start" x="412" y="-414.3" font-family="Times,serif" font-size="14.00">created_at :timestamp without time zone</text>
<text text-anchor="start" x="412" y="-399.3" font-family="Times,serif" font-size="14.00">updated_at :timestamp without time zone</text>
</g>
<!-- User -->
<g id="node5" class="node"><title>User</title>
<path fill="none" stroke="black" d="M289.5,-158.5C289.5,-158.5 578.5,-158.5 578.5,-158.5 584.5,-158.5 590.5,-164.5 590.5,-170.5 590.5,-170.5 590.5,-342.5 590.5,-342.5 590.5,-348.5 584.5,-354.5 578.5,-354.5 578.5,-354.5 289.5,-354.5 289.5,-354.5 283.5,-354.5 277.5,-348.5 277.5,-342.5 277.5,-342.5 277.5,-170.5 277.5,-170.5 277.5,-164.5 283.5,-158.5 289.5,-158.5"/>
<text text-anchor="middle" x="434" y="-339.3" font-family="Times,serif" font-size="14.00">User</text>
<polyline fill="none" stroke="black" points="277.5,-331.5 590.5,-331.5 "/>
<text text-anchor="start" x="285.5" y="-316.3" font-family="Times,serif" font-size="14.00">id :integer</text>
<text text-anchor="start" x="285.5" y="-301.3" font-family="Times,serif" font-size="14.00">email :character varying</text>
<text text-anchor="start" x="285.5" y="-286.3" font-family="Times,serif" font-size="14.00">encrypted_password :character varying</text>
<text text-anchor="start" x="285.5" y="-271.3" font-family="Times,serif" font-size="14.00">reset_password_token :character varying</text>
<text text-anchor="start" x="285.5" y="-256.3" font-family="Times,serif" font-size="14.00">reset_password_sent_at :timestamp without time zone</text>
<text text-anchor="start" x="285.5" y="-241.3" font-family="Times,serif" font-size="14.00">remember_created_at :timestamp without time zone</text>
<text text-anchor="start" x="285.5" y="-226.3" font-family="Times,serif" font-size="14.00">sign_in_count :integer</text>
<text text-anchor="start" x="285.5" y="-211.3" font-family="Times,serif" font-size="14.00">current_sign_in_at :timestamp without time zone</text>
<text text-anchor="start" x="285.5" y="-196.3" font-family="Times,serif" font-size="14.00">last_sign_in_at :timestamp without time zone</text>
<text text-anchor="start" x="285.5" y="-181.3" font-family="Times,serif" font-size="14.00">current_sign_in_ip :inet</text>
<text text-anchor="start" x="285.5" y="-166.3" font-family="Times,serif" font-size="14.00">last_sign_in_ip :inet</text>
</g>
<!-- Song&#45;&gt;User -->
<g id="edge2" class="edge"><title>Song&#45;&gt;User</title>
<path fill="none" stroke="#159cca" d="M493.285,-382.192C490.43,-376.188 487.501,-370.026 484.546,-363.812"/>
<polygon fill="#159cca" stroke="#159cca" points="493.352,-382.334 493.582,-393.297 495.499,-386.849 497.646,-391.365 497.646,-391.365 497.646,-391.365 495.499,-386.849 501.71,-389.432 493.352,-382.334 493.352,-382.334"/>
<polygon fill="#159cca" stroke="#159cca" points="484.499,-363.712 484.269,-352.748 482.352,-359.196 480.205,-354.681 480.205,-354.681 480.205,-354.681 482.352,-359.196 476.141,-356.613 484.499,-363.712 484.499,-363.712"/>
</g>
<!-- UserSong -->
<g id="node6" class="node"><title>UserSong</title>
<path fill="none" stroke="black" d="M416,-0.5C416,-0.5 636,-0.5 636,-0.5 642,-0.5 648,-6.5 648,-12.5 648,-12.5 648,-109.5 648,-109.5 648,-115.5 642,-121.5 636,-121.5 636,-121.5 416,-121.5 416,-121.5 410,-121.5 404,-115.5 404,-109.5 404,-109.5 404,-12.5 404,-12.5 404,-6.5 410,-0.5 416,-0.5"/>
<text text-anchor="middle" x="526" y="-106.3" font-family="Times,serif" font-size="14.00">UserSong</text>
<polyline fill="none" stroke="black" points="404,-98.5 648,-98.5 "/>
<text text-anchor="start" x="412" y="-83.3" font-family="Times,serif" font-size="14.00">id :integer</text>
<text text-anchor="start" x="412" y="-68.3" font-family="Times,serif" font-size="14.00">position :integer</text>
<text text-anchor="start" x="412" y="-53.3" font-family="Times,serif" font-size="14.00">user_id :integer</text>
<text text-anchor="start" x="412" y="-38.3" font-family="Times,serif" font-size="14.00">songs_id :integer</text>
<text text-anchor="start" x="412" y="-23.3" font-family="Times,serif" font-size="14.00">created_at :timestamp without time zone</text>
<text text-anchor="start" x="412" y="-8.3" font-family="Times,serif" font-size="14.00">updated_at :timestamp without time zone</text>
</g>
<!-- Song&#45;&gt;UserSong -->
<g id="edge1" class="edge"><title>Song&#45;&gt;UserSong</title>
<path fill="none" stroke="#8770a0" d="M585.668,-384.509C591.501,-375.118 596.532,-365.178 600,-355 628.235,-272.122 628.235,-240.878 600,-158 596.768,-148.513 592.178,-139.234 586.846,-130.413"/>
<ellipse fill="none" stroke="#8770a0" cx="583.47" cy="-387.892" rx="4.00002" ry="4.00002"/>
<polygon fill="#8770a0" stroke="#8770a0" points="586.69,-130.171 585.077,-119.324 583.99,-125.963 581.29,-121.754 581.29,-121.754 581.29,-121.754 583.99,-125.963 577.503,-124.185 586.69,-130.171 586.69,-130.171"/>
</g>
<!-- Genre -->
<g id="node4" class="node"><title>Genre</title>
<path fill="none" stroke="black" d="M416,-549.5C416,-549.5 636,-549.5 636,-549.5 642,-549.5 648,-555.5 648,-561.5 648,-561.5 648,-628.5 648,-628.5 648,-634.5 642,-640.5 636,-640.5 636,-640.5 416,-640.5 416,-640.5 410,-640.5 404,-634.5 404,-628.5 404,-628.5 404,-561.5 404,-561.5 404,-555.5 410,-549.5 416,-549.5"/>
<text text-anchor="middle" x="526" y="-625.3" font-family="Times,serif" font-size="14.00">Genre</text>
<polyline fill="none" stroke="black" points="404,-617.5 648,-617.5 "/>
<text text-anchor="start" x="412" y="-602.3" font-family="Times,serif" font-size="14.00">id :integer</text>
<text text-anchor="start" x="412" y="-587.3" font-family="Times,serif" font-size="14.00">name :character varying</text>
<text text-anchor="start" x="412" y="-572.3" font-family="Times,serif" font-size="14.00">created_at :timestamp without time zone</text>
<text text-anchor="start" x="412" y="-557.3" font-family="Times,serif" font-size="14.00">updated_at :timestamp without time zone</text>
</g>
<!-- Genre&#45;&gt;Song -->
<g id="edge3" class="edge"><title>Genre&#45;&gt;Song</title>
<path fill="none" stroke="#b72380" d="M526,-541.283C526,-535.279 526,-529.09 526,-522.907"/>
<ellipse fill="none" stroke="#b72380" cx="526" cy="-545.387" rx="4" ry="4"/>
<polygon fill="#b72380" stroke="#b72380" points="526,-522.541 530.5,-512.541 526,-517.541 526,-512.541 526,-512.541 526,-512.541 526,-517.541 521.5,-512.541 526,-522.541 526,-522.541"/>
</g>
<!-- User&#45;&gt;UserSong -->
<g id="edge4" class="edge"><title>User&#45;&gt;UserSong</title>
<path fill="none" stroke="#9aae4e" d="M483.625,-151.125C486.84,-144.363 490.031,-137.651 493.136,-131.123"/>
<ellipse fill="none" stroke="#9aae4e" cx="481.852" cy="-154.854" rx="4.00002" ry="4.00002"/>
<polygon fill="#9aae4e" stroke="#9aae4e" points="493.32,-130.735 501.678,-123.636 495.467,-126.219 497.614,-121.704 497.614,-121.704 497.614,-121.704 495.467,-126.219 493.55,-119.772 493.32,-130.735 493.32,-130.735"/>
</g>
</g>
</svg>
